<?xml version="1.0" encoding="UTF-8"?>
<svg id="Camada_2" data-name="Camada 2" xmlns="http://www.w3.org/2000/svg" xmlns:xlink="http://www.w3.org/1999/xlink" viewBox="0 0 2372.3 468.2">
  <defs>
    <style>
      .cls-1, .cls-2 {
        stroke-width: 0px;
      }

      .cls-2 {
        fill: none;
      }

      .cls-3 {
        clip-path: url(#clippath-1);
      }

      .cls-4 {
        clip-path: url(#clippath);
      }
    </style>
    <clipPath id="clippath">
      <rect class="cls-2" x="352.9" y="165.36" width="1738.51" height="70.71"/>
    </clipPath>
    <clipPath id="clippath-1">
      <rect class="cls-2" x="352.9" y="236.07" width="1738.51" height="70.71"/>
    </clipPath>
  </defs>
  <g id="Camada_3" data-name="Camada 3">
    <g>
      <g id="_Repetição_do_espelho_" data-name="&amp;lt;Repetição do espelho&amp;gt;">
        <g class="cls-4">
          <path class="cls-1" d="M352.9,244.7v-49.47s8.66-18.01,22.76-17.81c14.1.2,35.11,18.76,33.64,25.73-6.21,29.39,600.16,20.45,601.93,16.12l590.09-41.84s342.84-30.58,465.74,5.7c26.99,7.97,24.31,34.22,24.25,54.71"/>
        </g>
      </g>
      <g id="_Repetição_do_espelho_-2" data-name="&amp;lt;Repetição do espelho&amp;gt;">
        <g class="cls-3">
          <path class="cls-1" d="M352.9,227.45v49.47s8.66,18.01,22.76,17.81c14.1-.2,35.11-18.76,33.64-25.73-6.21-29.39,600.16-20.45,601.93-16.12l590.09,41.84s342.84,30.58,465.74-5.7c26.99-7.97,24.31-34.22,24.25-54.71"/>
        </g>
      </g>
    </g>
  </g>
  <g id="Camada_2-2" data-name="Camada 2">
    <g>
      <path class="cls-1" d="M67.09,77.4C85.59,25.8,118.91,0,167.04,0h322.08l-26.03,107.25H185.44c-2.55,0-5.21,1.04-7.98,3.12s-4.75,4.86-5.9,8.33l-54.14,225.94c-.69,4.4.35,8.22,3.12,11.45,2.78,3.24,6.36,4.86,10.76,4.86l271.41.35c-7.87,32.63-16.55,68.26-26.03,106.9H101.1c-35.87-1.39-62.71-14.52-80.52-39.39C2.76,403.94-3.48,377.04,1.84,348.11L67.09,77.4Z"/>
      <path class="cls-1" d="M511.34,77.4C529.61,25.8,561.78,0,607.82,0h340.48l-113.49,468.2h-110.72l31.58-129.11,56.23-231.84h-188.11c-2.55,0-5.09,1.04-7.64,3.12-2.78,2.08-4.63,4.86-5.55,8.33l-27.42,113.14-26.03,107.59-31.24,128.76h-110.02l95.45-390.8Z"/>
      <path class="cls-1" d="M982.31,77.4C1000.59,25.8,1032.75,0,1078.8,0h340.48l-113.49,468.2h-110.72l31.58-129.11,56.23-231.84h-188.11c-2.55,0-5.09,1.04-7.64,3.12-2.78,2.08-4.63,4.86-5.55,8.33l-27.42,113.14-26.03,107.59-31.24,128.76h-110.02l95.45-390.8Z"/>
      <path class="cls-1" d="M1567.13,107.25c-3.24,0-6.02.93-8.33,2.78-2.32,2.08-3.94,4.4-4.86,6.94-2.08,8.33-3.76,15.27-5.03,20.82-1.27,5.55-2.49,10.71-3.64,15.44-1.16,4.74-1.97,8.04-2.43,9.89-.69,4.4.23,8.22,2.78,11.45,2.54,3.24,5.9,4.86,10.07,4.86h169.72c31.24,0,56.23,12.27,74.97,36.79,18.74,24.29,24.52,52.29,17.35,83.99,0,.23-.12.58-.35,1.04,0,.47-.98,4.68-2.95,12.67-1.97,7.98-4.28,17.41-6.94,28.29-2.66,10.88-5.15,20.94-7.46,30.2-2.32,9.26-3.7,15.27-4.16,18.05-6.25,22.91-18.39,41.65-36.44,56.23-18.05,14.35-39.1,21.52-63.17,21.52h-338.4c4.63-19.9,8.56-36.5,11.8-49.81,3.24-13.3,6.19-25.56,8.85-36.79,2.66-11.22,4.34-18.57,5.03-22.04h297.44c6.47,0,10.99-3.35,13.54-10.07,2.08-8.33,3.76-15.27,5.03-20.82,1.27-5.55,2.48-10.7,3.64-15.45,1.15-4.74,1.96-8.04,2.43-9.89,1.62-4.17,1.16-7.98-1.39-11.45-2.55-3.47-5.9-5.21-10.07-5.21h.35-171.11c-31.47,0-56.57-11.91-75.31-35.75-18.97-23.83-24.76-51.94-17.35-84.34v-1.04l.69-3.12c1.39-5.32,3.64-14.23,6.77-26.72,3.12-12.49,6.13-24.7,9.02-36.62,2.89-11.91,4.8-19.72,5.73-23.43,19.66-50.44,52.64-75.66,98.92-75.66h338.74c-4.63,19.67-8.56,36.04-11.8,49.11-3.24,13.08-6.19,25.16-8.85,36.27-2.67,11.11-4.34,18.4-5.03,21.87h-297.79Z"/>
      <path class="cls-1" d="M1915.59,77.4c20.36-51.59,55.99-77.4,106.9-77.4h241.56c34.24,0,62.13,12.15,83.64,36.44,21.52,24.07,28.92,51.95,22.21,83.64l-7.64,31.58c-5.79,23.83-12.96,53.16-21.52,87.98-8.56,34.83-16.37,66.93-23.43,96.31-7.06,29.39-11.51,47.67-13.36,54.84-18.28,51.6-53.79,77.4-106.55,77.4h-239.83c-35.18,0-63.51-12.15-85.03-36.44-21.29-24.06-28.81-51.94-22.56-83.64,12.26-50.9,22.5-93.19,30.72-126.85,8.21-33.67,15.67-64.32,22.39-91.97,6.71-27.65,10.87-44.95,12.49-51.89ZM2176.93,360.95c7.17,0,12.03-3.82,14.58-11.45,10.18-42.57,18.74-77.86,25.68-105.86,6.94-27.99,13.19-53.56,18.74-76.7,5.55-23.13,9.02-37.6,10.41-43.38.69-4.39-.23-8.21-2.78-11.45-2.55-3.24-6.48-4.86-11.8-4.86h-188.81c-7.41,0-12.27,3.82-14.58,11.45-.23,1.16-2.9,12.09-7.98,32.8-5.09,20.71-11.05,45.06-17.87,73.06-6.83,28-13.02,53.57-18.57,76.7-5.55,23.14-9.14,37.6-10.76,43.38-.69,4.4.46,8.22,3.47,11.45,3.24,3.24,7.05,4.86,11.45,4.86h188.81Z"/>
    </g>
  </g>
</svg>